<?xml version="1.0" encoding="UTF-8"?>
<svg width="154px" height="32px" viewBox="0 0 154 32" version="1.1" xmlns="http://www.w3.org/2000/svg" xmlns:xlink="http://www.w3.org/1999/xlink">
    <!-- Generator: sketchtool 51.2 (57519) - http://www.bohemiancoding.com/sketch -->
    <title>3F48C23C-4238-4441-AF47-825F502EEEBA</title>
    <desc>Created with sketchtool.</desc>
    <defs></defs>
    <g id="Page-1" stroke="none" stroke-width="1" fill="none" fill-rule="evenodd">
        <g id="Work" transform="translate(-215.000000, -1122.000000)" fill="#000000">
            <g id="Footer" transform="translate(0.000000, 1096.000000)">
                <g id="Logo" transform="translate(215.000000, 26.000000)">
                    <g id="maverick_logo_white">
                        <g id="Group">
                            <polygon id="Shape" points="2.01126492 2.00912649 0.0559045346 0.0537661098 0.0559045346 31.985031 2.01126492 31.985031"></polygon>
                            <polygon id="Shape" points="37.2681623 2.00912649 39.2235227 0.0537661098 39.2235227 31.985031 37.2681623 31.985031"></polygon>
                            <polygon id="Shape" points="7.64822912 7.64609069 5.69538902 5.6932506 5.69538902 31.985031 7.64822912 31.985031"></polygon>
                            <polygon id="Shape" points="31.6311981 7.64609069 33.5840382 5.6932506 33.5840382 31.985031 31.6311981 31.985031"></polygon>
                            <polygon id="Shape" points="27.9456993 10.8936706 27.9456993 13.6321527 19.6397518 21.7231122 11.3337279 13.6321527 11.3337279 10.8936706 19.6397518 19.1996181"></polygon>
                        </g>
                        <g id="Group" transform="translate(53.600000, 0.000000)" fill-rule="nonzero">
                            <polygon id="Shape" points="11.2331073 14.6135309 11.2331073 5.83420612 7.1198336 9.57921927 3.00636664 5.83420612 3.00636664 14.6135309 0.141430616 14.6135309 0.141430616 0.267983968 1.12371648 0.267983968 7.1198336 5.71151699 13.0952771 0.267983968 14.0980434 0.267983968 14.0980434 14.6135309 11.2331073 14.6135309"></polygon>
                            <polygon id="Shape" points="23.4504327 0.267983968 16.1445367 14.6135309 19.3574461 14.6135309 23.7982129 5.89564729 27.8911994 14.6135309 31.0631481 14.6135309 24.2893558 0.267983968 23.4504327 0.267983968"></polygon>
                            <polygon id="Shape" points="35.4424737 14.6135309 41.9092534 0.267983968 38.7373047 0.267983968 35.0127719 8.41280311 31.2677588 0.267983968 28.0958101 0.267983968 34.5830702 14.6135309 35.4424737 14.6135309"></polygon>
                            <path d="M53.8195661,0.267983968 L44.2627593,0.267983968 L44.2627593,3.13292 L53.8195661,3.13292 L53.8195661,0.267983968 Z M44.2627593,8.65837458 L52.1824874,8.65837458 L52.1824874,5.79343855 L44.2627593,5.79343855 L44.2627593,8.65837458 Z M44.2627593,14.6135309 L53.7581249,14.6135309 L53.7581249,11.7485949 L44.2627593,11.7485949 L44.2627593,14.6135309 Z" id="Shape"></path>
                            <path d="M61.8824636,3.11243961 C62.6806192,3.11243961 63.3151249,3.76742566 63.3151249,4.56558122 C63.3151249,5.36354358 62.6806192,5.99804924 61.8824636,5.99804924 L60.7774887,5.99804924 L60.7774887,8.86298526 L63.4582944,14.6135309 L66.5075539,14.6135309 L63.6629051,8.47424428 C65.1568143,7.79897105 66.1800609,6.30506187 66.1800609,4.56558122 C66.1800609,2.19159491 64.25645,0.247503578 61.8824636,0.247503578 L56.2752807,0.247503578 L56.2752807,14.5930505 L59.1402167,14.5930505 L59.1402167,3.11243961 L61.8824636,3.11243961 Z" id="Shape"></path>
                            <rect id="Rectangle-path" x="68.4311649" y="0.267983968" width="2.86493603" height="14.3250666"></rect>
                            <path d="M85.3551156,1.61872363 C84.0864907,0.63624456 82.4901796,0.0428928917 80.7711793,0.0428928917 C76.6781928,0.0428928917 73.3425942,3.37849146 73.3425942,7.47147803 C73.3425942,11.5642714 76.6781928,14.9000632 80.7711793,14.9000632 C82.5721011,14.9000632 84.2296602,14.2450771 85.5189587,13.1810629 L83.6770761,11.0731285 C80.97579,13.1196217 76.5350232,11.5030234 76.5350232,7.47147803 C76.5350232,3.62406293 80.7302185,1.94602345 83.5134262,3.74694527 L85.3551156,1.61872363 Z" id="Shape"></path>
                            <polygon id="Shape" points="95.8124799 14.5930505 99.23 14.5930505 94.0934796 5.8751669 99.1073109 0.267983968 95.2394154 0.267983968 91.0442201 4.89288104 91.0442201 0.267983968 88.1792841 0.267983968 88.1792841 14.5930505 91.0442201 14.5930505 91.0442201 9.1699979 92.1493883 8.04454252"></polygon>
                        </g>
                        <g id="Group" transform="translate(54.400000, 22.400000)" fill-rule="nonzero">
                            <path d="M2.229504,9.34656 C2.825088,9.34656 3.306624,9.188928 3.674496,8.873664 C4.094976,8.48832 4.305216,7.940928 4.305216,7.231488 L4.305216,2.318016 C4.305216,1.608576 4.094976,1.056768 3.674496,0.662592 C3.306624,0.321024 2.825088,0.150144 2.229504,0.150144 L0.140544,0.150144 L0.140544,9.34656 L2.229504,9.34656 Z M1.257216,1.267008 L2.229504,1.267008 C2.56224,1.267008 2.805312,1.352256 2.958528,1.523136 C3.111744,1.693824 3.188544,1.958784 3.188544,2.318016 L3.188544,7.231488 C3.188544,7.608 3.1008,7.875264 2.925696,8.032896 C2.785536,8.164224 2.553408,8.229888 2.229504,8.229888 L1.257216,8.229888 L1.257216,1.267008 Z" id="Shape"></path>
                            <rect id="Rectangle-path" x="17.10144" y="0.150144" width="1.116672" height="9.196416"></rect>
                            <path d="M33.103104,9.464832 C33.690048,9.464832 34.176,9.294144 34.561344,8.952576 C34.972992,8.56704 35.178816,8.015424 35.178816,7.297152 L35.178816,4.196544 L33.103104,4.196544 L33.103104,5.313408 L34.062144,5.313408 L34.062144,7.297152 C34.062144,7.656192 33.985536,7.921152 33.83232,8.092032 C33.679104,8.26272 33.436032,8.34816 33.103104,8.34816 C32.770368,8.34816 32.524992,8.26272 32.36736,8.092032 C32.209728,7.921152 32.131008,7.656192 32.131008,7.297152 L32.131008,2.199744 C32.131008,1.840512 32.209728,1.575744 32.36736,1.404864 C32.524992,1.233984 32.770368,1.148736 33.103104,1.148736 C33.436032,1.148736 33.679104,1.233984 33.83232,1.404864 C33.985536,1.575744 34.062144,1.840512 34.062144,2.199744 L34.062144,3.040512 L35.178816,3.040512 L35.178816,2.199744 C35.178816,1.490304 34.972992,0.938496 34.561344,0.54432 C34.176,0.202752 33.690048,0.031872 33.103104,0.031872 C32.516352,0.031872 32.030208,0.202752 31.644864,0.54432 C31.224384,0.938496 31.014336,1.490304 31.014336,2.199744 L31.014336,7.297152 C31.014336,8.015424 31.224384,8.56704 31.644864,8.952576 C32.030208,9.294144 32.516352,9.464832 33.103104,9.464832 Z" id="Shape"></path>
                            <rect id="Rectangle-path" x="47.97504" y="0.150144" width="1.116672" height="9.196416"></rect>
                            <polygon id="Shape" points="65.816256 0.163392 65.816256 1.280064 64.265856 1.280064 64.265856 9.34656 63.149184 9.34656 63.149184 1.280064 61.612032 1.280064 61.612032 0.163392"></polygon>
                            <path d="M81.266112,9.34656 L80.911488,7.441728 L78.993408,7.441728 L78.625536,9.34656 L77.48256,9.34656 L79.413696,0.150144 L80.491008,0.150144 L82.409088,9.34656 L81.266112,9.34656 Z M79.203456,6.324864 L80.701248,6.324864 L79.952448,2.370432 L79.203456,6.324864 Z" id="Shape"></path>
                            <polygon id="Shape" points="98.607936 9.34656 98.607936 8.229888 96.098688 8.229888 96.098688 0.150144 94.982016 0.150144 94.982016 9.34656"></polygon>
                        </g>
                    </g>
                </g>
            </g>
        </g>
    </g>
</svg>
