<?xml version="1.0" encoding="UTF-8"?>
<svg width="17px" height="16px" viewBox="0 0 17 16" version="1.1" xmlns="http://www.w3.org/2000/svg" xmlns:xlink="http://www.w3.org/1999/xlink">
    <!-- Generator: sketchtool 51.2 (57519) - http://www.bohemiancoding.com/sketch -->
    <title>8798ED2D-2C50-4631-B20C-382B10FC8DD9</title>
    <desc>Created with sketchtool.</desc>
    <defs></defs>
    <g id="Page-1" stroke="none" stroke-width="1" fill="none" fill-rule="evenodd">
        <g id="Key-People" transform="translate(-1371.000000, -1046.000000)" fill="#8C8F94" fill-rule="nonzero">
            <g id="Footer" transform="translate(0.000000, 1012.000000)">
                <g id="Socials" transform="translate(1166.000000, 30.000000)">
                    <path d="M208.571429,20 L205.142857,20 L205.142857,8.57142857 L208.571429,8.57142857 L208.571429,20 Z M221.142857,20 L217.714286,20 L217.714286,13.8948571 C217.714286,12.304 217.147429,11.512 216.024,11.512 C215.133714,11.512 214.569143,11.9554286 214.285714,12.8434286 C214.285714,14.2857143 214.285714,20 214.285714,20 L210.857143,20 C210.857143,20 210.902857,9.71428571 210.857143,8.57142857 L213.563429,8.57142857 L213.772571,10.8571429 L213.843429,10.8571429 C214.546286,9.71428571 215.669714,8.93942857 217.210286,8.93942857 C218.381714,8.93942857 219.329143,9.26514286 220.052571,10.0834286 C220.780571,10.9028571 221.142857,12.0022857 221.142857,13.5462857 L221.142857,20 Z M206.857143,7.42857143 C205.87881,7.42857143 205.085714,6.66105957 205.085714,5.71428571 C205.085714,4.76751186 205.87881,4 206.857143,4 C207.835476,4 208.628571,4.76751186 208.628571,5.71428571 C208.628571,6.66105957 207.835476,7.42857143 206.857143,7.42857143 Z" id="Shape"></path>
                </g>
            </g>
        </g>
    </g>
</svg>