<?xml version="1.0" encoding="UTF-8"?>
<svg width="17px" height="14px" viewBox="0 0 17 14" version="1.1" xmlns="http://www.w3.org/2000/svg" xmlns:xlink="http://www.w3.org/1999/xlink">
    <!-- Generator: sketchtool 51.2 (57519) - http://www.bohemiancoding.com/sketch -->
    <title>A45E51A3-3DF4-4887-B012-62F19D8AE6D1</title>
    <desc>Created with sketchtool.</desc>
    <defs></defs>
    <g id="Page-1" stroke="none" stroke-width="1" fill="none" fill-rule="evenodd">
        <g id="Key-People" transform="translate(-1324.000000, -1047.000000)" fill="#8C8F94">
            <g id="Footer" transform="translate(0.000000, 1012.000000)">
                <g id="Socials" transform="translate(1166.000000, 30.000000)">
                    <path d="M174.9,6.6 C174.3,6.9 173.6,7.1 172.9,7.2 C173.6,6.8 174.2,6.1 174.4,5.2 C173.7,5.6 173,5.9 172.2,6.1 C171.6,5.4 170.7,5 169.7,5 C167.8,5 166.2,6.6 166.2,8.5 C166.2,8.8 166.2,9 166.3,9.3 C163.4,9.2 160.8,7.7 159.1,5.6 C158.8,6.1 158.6,6.7 158.6,7.4 C158.6,8.6 159.2,9.7 160.2,10.3 C159.6,10.3 159.1,10.1 158.6,9.9 L158.6,9.9 C158.6,11.6 159.8,13 161.4,13.4 C161.1,13.5 160.8,13.5 160.5,13.5 C160.3,13.5 160.1,13.5 159.8,13.4 C160.2,14.8 161.5,15.8 163.1,15.9 C161.9,16.8 160.4,17.4 158.8,17.4 L158,17.4 C159.5,18.4 161.4,19 163.3,19 C169.7,19 173.2,13.6 173.2,8.9 L173.2,8.4 C173.8,7.9 174.4,7.3 174.9,6.6 L174.9,6.6 L174.9,6.6 Z" id="Twitter"></path>
                </g>
            </g>
        </g>
    </g>
</svg>